<?xml version="1.0" encoding="UTF-8" standalone="no"?>
<!-- Created with Inkscape (http://www.inkscape.org/) -->
<svg
   xmlns:dc="http://purl.org/dc/elements/1.1/"
   xmlns:cc="http://creativecommons.org/ns#"
   xmlns:rdf="http://www.w3.org/1999/02/22-rdf-syntax-ns#"
   xmlns:svg="http://www.w3.org/2000/svg"
   xmlns="http://www.w3.org/2000/svg"
   xmlns:xlink="http://www.w3.org/1999/xlink"
   xmlns:sodipodi="http://sodipodi.sourceforge.net/DTD/sodipodi-0.dtd"
   xmlns:inkscape="http://www.inkscape.org/namespaces/inkscape"
   width="1000"
   height="1000"
   id="svg2"
   sodipodi:version="0.32"
   inkscape:version="0.46"
   version="1.0"
   sodipodi:docname="TOPPView.svg"
   inkscape:output_extension="org.inkscape.output.svg.inkscape"
   inkscape:export-filename="/Users/aiche/dev/images/icons/TOPPView16.png"
   inkscape:export-xdpi="1.4400001"
   inkscape:export-ydpi="1.4400001">
  <defs
     id="defs4">
    <linearGradient
       id="linearGradient3215">
      <stop
         id="stop3217"
         offset="0"
         style="stop-color:#ffffff;stop-opacity:1;" />
      <stop
         id="stop3219"
         offset="1"
         style="stop-color:#ffffff;stop-opacity:0;" />
    </linearGradient>
    <linearGradient
       id="linearGradient3198">
      <stop
         id="stop3200"
         offset="0"
         style="stop-color:#223399;stop-opacity:0;" />
      <stop
         id="stop3202"
         offset="1"
         style="stop-color:#000000;stop-opacity:0.62773722;" />
    </linearGradient>
    <linearGradient
       inkscape:collect="always"
       id="linearGradient3184">
      <stop
         style="stop-color:#223399;stop-opacity:1;"
         offset="0"
         id="stop3186" />
      <stop
         style="stop-color:#223399;stop-opacity:0;"
         offset="1"
         id="stop3188" />
    </linearGradient>
    <inkscape:perspective
       sodipodi:type="inkscape:persp3d"
       inkscape:vp_x="0 : 526.18109 : 1"
       inkscape:vp_y="0 : 1000 : 0"
       inkscape:vp_z="744.09448 : 526.18109 : 1"
       inkscape:persp3d-origin="372.04724 : 350.78739 : 1"
       id="perspective10" />
    <linearGradient
       inkscape:collect="always"
       xlink:href="#linearGradient3184"
       id="linearGradient3190"
       x1="124.01923"
       y1="104.49941"
       x2="943.3537"
       y2="931.93207"
       gradientUnits="userSpaceOnUse" />
    <radialGradient
       inkscape:collect="always"
       xlink:href="#linearGradient3198"
       id="radialGradient3196"
       cx="532.85712"
       cy="515.71429"
       fx="532.85712"
       fy="515.71429"
       r="410.5"
       gradientTransform="matrix(1,0,0,1.0139203,0,-7.1789119)"
       gradientUnits="userSpaceOnUse" />
    <linearGradient
       inkscape:collect="always"
       xlink:href="#linearGradient3184"
       id="linearGradient3207"
       gradientUnits="userSpaceOnUse"
       x1="124.01923"
       y1="104.49941"
       x2="943.3537"
       y2="931.93207" />
    <linearGradient
       inkscape:collect="always"
       xlink:href="#linearGradient3184"
       id="linearGradient3211"
       gradientUnits="userSpaceOnUse"
       x1="124.01923"
       y1="104.49941"
       x2="943.3537"
       y2="931.93207" />
    <linearGradient
       inkscape:collect="always"
       xlink:href="#linearGradient3215"
       id="linearGradient3221"
       gradientUnits="userSpaceOnUse"
       x1="532.85712"
       y1="99.496529"
       x2="532.85712"
       y2="931.93207" />
    <filter
       inkscape:collect="always"
       id="filter3371">
      <feGaussianBlur
         inkscape:collect="always"
         stdDeviation="5.8122572"
         id="feGaussianBlur3373" />
    </filter>
  </defs>
  <sodipodi:namedview
     id="base"
     pagecolor="#ffffff"
     bordercolor="#666666"
     borderopacity="1.0"
     gridtolerance="10000"
     guidetolerance="10"
     objecttolerance="10"
     inkscape:pageopacity="0.0"
     inkscape:pageshadow="2"
     inkscape:zoom="0.49497475"
     inkscape:cx="-79.904076"
     inkscape:cy="520"
     inkscape:document-units="px"
     inkscape:current-layer="layer3"
     showgrid="false"
     inkscape:window-width="1780"
     inkscape:window-height="970"
     inkscape:window-x="87"
     inkscape:window-y="109" />
  <metadata
     id="metadata7">
    <rdf:RDF>
      <cc:Work
         rdf:about="">
        <dc:format>image/svg+xml</dc:format>
        <dc:type
           rdf:resource="http://purl.org/dc/dcmitype/StillImage" />
      </cc:Work>
    </rdf:RDF>
  </metadata>
  <g
     inkscape:label="BaseColor"
     inkscape:groupmode="layer"
     id="layer1">
    <path
       sodipodi:type="arc"
       style="fill:url(#linearGradient3190);fill-rule:evenodd;stroke:#000000;stroke-width:1px;stroke-linecap:butt;stroke-linejoin:miter;stroke-opacity:1;fill-opacity:1"
       id="path2383"
       sodipodi:cx="532.85712"
       sodipodi:cy="515.71429"
       sodipodi:rx="410"
       sodipodi:ry="415.71429"
       d="M 942.85712,515.71429 A 410,415.71429 0 1 1 122.85712,515.71429 A 410,415.71429 0 1 1 942.85712,515.71429 z"
       transform="matrix(1.218037,0,0,1.2012942,-149.0397,-119.52464)" />
    <path
       transform="matrix(1.218037,0,0,1.2012942,-149.0397,-119.52464)"
       d="M 942.85712,515.71429 A 410,415.71429 0 1 1 122.85712,515.71429 A 410,415.71429 0 1 1 942.85712,515.71429 z"
       sodipodi:ry="415.71429"
       sodipodi:rx="410"
       sodipodi:cy="515.71429"
       sodipodi:cx="532.85712"
       id="path3192"
       style="fill:url(#linearGradient3190);fill-rule:evenodd;stroke:#000000;stroke-width:1px;stroke-linecap:butt;stroke-linejoin:miter;stroke-opacity:1;fill-opacity:1"
       sodipodi:type="arc" />
  </g>
  <g
     inkscape:groupmode="layer"
     id="layer2"
     inkscape:label="ShadowGlowEffects">
    <path
       transform="matrix(1.218037,0,0,1.2012942,-149.0397,-119.52464)"
       d="M 942.85712,515.71429 A 410,415.71429 0 1 1 122.85712,515.71429 A 410,415.71429 0 1 1 942.85712,515.71429 z"
       sodipodi:ry="415.71429"
       sodipodi:rx="410"
       sodipodi:cy="515.71429"
       sodipodi:cx="532.85712"
       id="path3194"
       style="fill:url(#radialGradient3196);fill-rule:evenodd;stroke:none;stroke-width:1px;stroke-linecap:butt;stroke-linejoin:miter;stroke-opacity:1;fill-opacity:1"
       sodipodi:type="arc" />
  </g>
  <g
     inkscape:groupmode="layer"
     id="layer3"
     inkscape:label="Glow"
     style="display:inline">
    <path
       transform="matrix(0.7850276,0,0,0.6114323,81.692411,-50.689933)"
       d="M 942.85712,515.71429 A 410,415.71429 0 1 1 122.85712,515.71429 A 410,415.71429 0 1 1 942.85712,515.71429 z"
       sodipodi:ry="415.71429"
       sodipodi:rx="410"
       sodipodi:cy="515.71429"
       sodipodi:cx="532.85712"
       id="path3213"
       style="fill:url(#linearGradient3221);fill-opacity:1;fill-rule:evenodd;stroke:none;stroke-width:1px;stroke-linecap:butt;stroke-linejoin:miter;stroke-opacity:1"
       sodipodi:type="arc" />
  </g>
  <g
     inkscape:groupmode="layer"
     id="layer5"
     inkscape:label="TGlow"
     style="display:inline">
    <path
       id="path3229"
       d="M 781.40967,367.74743 C 781.4091,369.79373 780.38617,371.49862 778.34088,372.86208 C 776.9764,373.54448 775.95347,373.88545 775.27208,373.88502 L 757.88225,373.88502 C 752.42607,373.88545 749.01631,370.81666 747.65294,364.67863 L 737.42362,300.23396 C 734.01333,283.18563 728.89868,271.59242 722.07965,265.45429 C 715.94156,258.6353 705.0303,255.22554 689.34585,255.22498 L 551.25012,255.22498 L 551.25012,609.15922 C 551.24978,653.48641 552.27271,689.28897 554.31891,716.56701 C 556.36443,743.1633 559.7742,758.84823 564.54823,763.62186 C 572.04936,771.80534 593.87187,775.89707 630.01583,775.89703 C 647.7462,775.89707 656.6116,777.94293 656.61205,782.03462 L 656.61205,804.53911 L 650.47446,810.6767 L 362.00782,810.6767 C 357.23399,810.6767 354.84716,807.94888 354.8473,802.49325 L 354.8473,785.10341 C 354.84716,781.01172 356.21106,778.62488 358.93903,777.94289 C 361.66669,777.26097 369.16818,776.92 381.44352,776.91996 C 419.63274,776.92 442.81916,770.10046 451.00285,756.46134 C 459.868,742.14037 464.3007,703.26901 464.30095,639.84716 L 464.30095,255.22498 L 326.20522,255.22498 C 311.20213,255.22554 300.29087,258.6353 293.47142,265.45429 C 286.6518,271.59242 281.53715,283.18563 278.12745,300.23396 L 266.87521,364.67863 C 265.51124,370.81666 262.44245,373.88545 257.66882,373.88502 L 240.27899,373.88502 C 236.18724,371.83959 234.14138,369.79373 234.1414,367.74743 L 234.1414,219.42238 C 234.14138,211.23953 237.55115,207.14781 244.37072,207.14721 L 771.18036,207.14721 C 777.99933,207.14781 781.4091,211.23953 781.40967,219.42238 L 781.40967,367.74743"
       style="font-size:1047.48168945px;font-style:normal;font-variant:normal;font-weight:normal;font-stretch:normal;fill:#000000;fill-opacity:0;stroke:#ffffff;stroke-width:50;stroke-linecap:butt;stroke-linejoin:miter;stroke-miterlimit:4;stroke-dasharray:none;stroke-opacity:0.74253732;filter:url(#filter3371);font-family:'#GungSeo';-inkscape-font-specification:'#GungSeo'" />
  </g>
  <g
     inkscape:groupmode="layer"
     id="layer4"
     inkscape:label="T">
    <path
       style="font-size:1047.48168945px;font-style:normal;font-variant:normal;font-weight:normal;font-stretch:normal;fill:#000000;fill-opacity:1;stroke:none;stroke-width:1px;stroke-linecap:butt;stroke-linejoin:miter;stroke-opacity:1;font-family:'#GungSeo';-inkscape-font-specification:'#GungSeo'"
       d="M 781.40967,367.74743 C 781.4091,369.79373 780.38617,371.49862 778.34088,372.86208 C 776.9764,373.54448 775.95347,373.88545 775.27208,373.88502 L 757.88225,373.88502 C 752.42607,373.88545 749.01631,370.81666 747.65294,364.67863 L 737.42362,300.23396 C 734.01333,283.18563 728.89868,271.59242 722.07965,265.45429 C 715.94156,258.6353 705.0303,255.22554 689.34585,255.22498 L 551.25012,255.22498 L 551.25012,609.15922 C 551.24978,653.48641 552.27271,689.28897 554.31891,716.56701 C 556.36443,743.1633 559.7742,758.84823 564.54823,763.62186 C 572.04936,771.80534 593.87187,775.89707 630.01583,775.89703 C 647.7462,775.89707 656.6116,777.94293 656.61205,782.03462 L 656.61205,804.53911 L 650.47446,810.6767 L 362.00782,810.6767 C 357.23399,810.6767 354.84716,807.94888 354.8473,802.49325 L 354.8473,785.10341 C 354.84716,781.01172 356.21106,778.62488 358.93903,777.94289 C 361.66669,777.26097 369.16818,776.92 381.44352,776.91996 C 419.63274,776.92 442.81916,770.10046 451.00285,756.46134 C 459.868,742.14037 464.3007,703.26901 464.30095,639.84716 L 464.30095,255.22498 L 326.20522,255.22498 C 311.20213,255.22554 300.29087,258.6353 293.47142,265.45429 C 286.6518,271.59242 281.53715,283.18563 278.12745,300.23396 L 266.87521,364.67863 C 265.51124,370.81666 262.44245,373.88545 257.66882,373.88502 L 240.27899,373.88502 C 236.18724,371.83959 234.14138,369.79373 234.1414,367.74743 L 234.1414,219.42238 C 234.14138,211.23953 237.55115,207.14781 244.37072,207.14721 L 771.18036,207.14721 C 777.99933,207.14781 781.4091,211.23953 781.40967,219.42238 L 781.40967,367.74743"
       id="text3224" />
  </g>
</svg>
